<?xml version="1.0" standalone="no"?>
<!DOCTYPE svg PUBLIC "-//W3C//DTD SVG 20010904//EN"
 "http://www.w3.org/TR/2001/REC-SVG-20010904/DTD/svg10.dtd">
<svg version="1.0" xmlns="http://www.w3.org/2000/svg"
 width="700.000000pt" height="700.000000pt" viewBox="0 0 700.000000 700.000000"
 preserveAspectRatio="xMidYMid meet">
<metadata>
Created by potrace 1.11, written by Peter Selinger 2001-2013
</metadata>
<g transform="translate(0.000000,700.000000) scale(0.100000,-0.100000)"
fill="#000000" stroke="none">
<path d="M4995 6184 c-247 -179 -473 -342 -502 -362 l-52 -37 127 -80 c70 -44
127 -87 127 -95 0 -8 -153 -304 -340 -657 l-340 -643 -35 -5 c-169 -25 -262
-67 -354 -159 -95 -95 -155 -238 -156 -376 l-1 -45 -566 -355 c-311 -195 -569
-356 -573 -358 -5 -2 -43 65 -87 147 -43 83 -82 150 -86 148 -7 -2 -677 -1100
-673 -1103 1 -1 976 62 1118 73 l106 8 -78 145 c-43 80 -76 148 -74 152 9 15
1160 732 1174 731 8 -1 47 -14 85 -29 62 -25 83 -28 185 -28 94 0 126 4 173
21 157 59 278 182 328 335 13 39 28 70 38 72 182 56 676 195 679 191 3 -2 23
-80 46 -173 l41 -169 453 438 c250 240 452 441 451 446 -2 7 -1180 275 -1186
269 -1 -1 17 -75 39 -164 23 -93 37 -167 32 -171 -10 -9 -605 -183 -610 -179
-3 4 613 1169 625 1181 4 4 68 -31 141 -77 74 -46 137 -83 138 -81 5 4 71
1187 72 1263 0 28 -3 52 -7 51 -5 0 -210 -147 -458 -325z"/>
</g>
</svg>
